<svg width="150" height="150" viewBox="0 0 150 150" fill="none" xmlns="http://www.w3.org/2000/svg">
<circle cx="75" cy="75" r="75" fill="url(#paint0_linear_0_1)" fill-opacity="0.3"/>
<path d="M104.464 50.36C104.715 50.5702 104.891 50.8544 104.963 51.1701C105.036 51.4859 105.003 51.8163 104.868 52.112C100.183 62.402 90.3429 76.622 83.1399 84.032C81.121 86.1049 78.631 87.6816 75.8726 88.634C75.8175 89.315 75.6888 90.248 75.3826 91.238C74.767 93.215 73.3399 95.675 70.1518 96.458C67.0643 97.1782 63.8646 97.3126 60.7255 96.854C60.1417 96.7636 59.5662 96.6282 59.0043 96.449C58.4845 96.294 57.9999 96.0424 57.5772 95.708C57.2984 95.4757 57.0836 95.1786 56.9525 94.844C56.7899 94.4145 56.7942 93.9415 56.9647 93.515C57.2556 92.78 57.9325 92.375 58.3765 92.159C59.5831 91.568 60.2906 90.8 61.0317 89.681C61.3226 89.249 61.5952 88.79 61.9106 88.265L62.269 87.671C62.7314 86.906 63.2673 86.051 63.9411 85.127C65.5581 82.91 67.6191 82.352 69.2882 82.439C69.6741 82.46 70.0324 82.514 70.354 82.583C70.5438 82.067 70.7888 81.443 71.0828 80.759C71.8821 78.902 73.098 76.502 74.718 74.552C81.382 66.542 93.6443 55.934 102.639 50.24C102.916 50.0649 103.243 49.982 103.572 50.0036C103.901 50.0252 104.214 50.1502 104.464 50.36ZM70.4091 85.736C70.0027 85.5628 69.5683 85.4612 69.1259 85.436C68.3725 85.397 67.3711 85.586 66.434 86.873C65.8306 87.698 65.3468 88.469 64.9027 89.204L64.5811 89.735C64.2565 90.278 63.9288 90.821 63.6011 91.319C62.9809 92.3034 62.1938 93.1769 61.2736 93.902C63.3868 94.238 66.5901 94.235 69.4107 93.542C71.1226 93.125 71.9924 91.835 72.4518 90.362C72.6735 89.6302 72.8031 88.8746 72.8376 88.112L70.4091 85.736ZM74.8191 85.814C75.1866 85.694 75.6674 85.514 76.2217 85.265C77.9859 84.4632 79.5806 83.3438 80.9226 81.965C86.7414 75.977 94.4344 65.255 99.4569 56.072C91.525 61.853 82.411 70.052 77.0945 76.448C75.7409 78.077 74.6598 80.177 73.9034 81.926C73.5328 82.79 73.248 83.546 73.0612 84.086V84.089L74.8221 85.814H74.8191ZM59.5893 94.934L59.6107 94.919C59.6041 94.9239 59.5969 94.9279 59.5893 94.931V94.934ZM70.5591 85.805L70.5653 85.808H70.5591V85.805Z" fill="black"/>
<defs>
<linearGradient id="paint0_linear_0_1" x1="75" y1="0" x2="75" y2="150" gradientUnits="userSpaceOnUse">
<stop stop-color="#3A84F0"/>
<stop offset="1" stop-color="#1B3C63"/>
</linearGradient>
</defs>
</svg>
