<svg width="150" height="150" viewBox="0 0 150 150" fill="none" xmlns="http://www.w3.org/2000/svg">
<circle cx="75" cy="75" r="75" fill="url(#paint0_linear_0_1)" fill-opacity="0.3"/>
<path d="M54.5 63.2812C54.5 62.7425 54.7041 62.2259 55.0675 61.8449C55.4309 61.464 55.9237 61.25 56.4375 61.25H62.25C62.7639 61.25 63.2567 61.464 63.62 61.8449C63.9834 62.2259 64.1875 62.7425 64.1875 63.2812C64.1875 63.82 63.9834 64.3366 63.62 64.7176C63.2567 65.0985 62.7639 65.3125 62.25 65.3125V67.3437H78.2925L79.7883 62.6394C79.9167 62.2351 80.1632 61.8834 80.4928 61.634C80.8225 61.3847 81.2185 61.2503 81.625 61.25H85.5C86.0139 61.25 86.5067 61.464 86.87 61.8449C87.2334 62.2259 87.4375 62.7425 87.4375 63.2812C87.4375 63.82 87.2334 64.3366 86.87 64.7176C86.5067 65.0985 86.0139 65.3125 85.5 65.3125H83.02L81.8149 69.1109L84.942 74.3516C87.6367 73.1865 90.6506 73.1252 93.3863 74.1799C96.122 75.2346 98.38 77.3283 99.7128 80.0461C101.046 82.7638 101.356 85.9073 100.582 88.8536C99.8083 91.7999 98.0071 94.3339 95.5353 95.9535C93.0635 97.5731 90.1016 98.1602 87.2364 97.5982C84.3713 97.0363 81.812 95.3664 80.0659 92.9196C78.3197 90.4727 77.5141 87.4274 77.8086 84.3871C78.1031 81.3469 79.4763 78.5336 81.656 76.5047L79.6875 73.2059L71.643 86.7016C71.4689 86.9937 71.2267 87.2346 70.9393 87.4016C70.6518 87.5686 70.3286 87.6562 70 87.6562H62.0911C61.6893 90.1474 60.5589 92.446 58.8564 94.2341C57.1538 96.0222 54.9633 97.2113 52.5879 97.6371C50.2125 98.0628 47.7696 97.7041 45.5972 96.6106C43.4247 95.517 41.6301 93.7426 40.4617 91.533C39.2933 89.3233 38.8088 86.7876 39.0752 84.2766C39.3416 81.7656 40.3458 79.4034 41.9488 77.517C43.5518 75.6305 45.6744 74.3129 48.023 73.7466C50.3715 73.1802 52.8299 73.393 55.058 74.3556L58.375 68.79V65.3125H56.4375C55.9237 65.3125 55.4309 65.0985 55.0675 64.7176C54.7041 64.3366 54.5 63.82 54.5 63.2812ZM60.3125 73.2059L58.344 76.5128C60.2815 78.3166 61.6378 80.7947 62.0911 83.5937H66.5048L60.3125 73.2059ZM70 81.7941L76.1923 71.4062H63.8078L70 81.7941ZM58.1309 83.5937C57.8012 82.2572 57.1517 81.0309 56.2438 80.0309L54.1203 83.5937H58.1309ZM52.9616 77.8737C51.4834 77.3843 49.8991 77.3709 48.4135 77.8353C46.9279 78.2997 45.6093 79.2205 44.628 80.4787C43.6467 81.7369 43.048 83.2747 42.909 84.8934C42.7701 86.5121 43.0974 88.1373 43.8486 89.5589C44.5998 90.9806 45.7405 92.1334 47.1231 92.8683C48.5058 93.6033 50.0669 93.8867 51.6048 93.6818C53.1426 93.4769 54.5865 92.7932 55.7499 91.7191C56.9133 90.6449 57.7427 89.2297 58.1309 87.6562H50.625C50.2792 87.6562 49.9396 87.5592 49.6416 87.3752C49.3436 87.1911 49.0981 86.9268 48.9304 86.6097C48.7627 86.2926 48.6791 85.9341 48.6882 85.5717C48.6973 85.2092 48.7987 84.8559 48.982 84.5484L52.9616 77.8737ZM83.7563 80.0269C82.4574 81.4609 81.702 83.3424 81.6317 85.3186C81.5614 87.2948 82.181 89.2301 83.3743 90.7616C84.5676 92.2931 86.2528 93.3158 88.1139 93.638C89.975 93.9601 91.8842 93.5596 93.4838 92.5115C95.0834 91.4634 96.2635 89.8396 96.8028 87.9446C97.3421 86.0496 97.2037 84.0134 96.4135 82.2178C95.6233 80.4221 94.2355 78.9902 92.5103 78.1905C90.7852 77.3908 88.841 77.2782 87.0423 77.8737L91.018 84.5484C91.1529 84.7746 91.2439 85.0265 91.2859 85.2896C91.3279 85.5526 91.3201 85.8218 91.2629 86.0817C91.2057 86.3417 91.1002 86.5872 90.9525 86.8044C90.8047 87.0216 90.6177 87.2061 90.4019 87.3475C90.1861 87.4889 89.9459 87.5843 89.695 87.6284C89.444 87.6724 89.1873 87.6642 88.9394 87.6042C88.6914 87.5443 88.4572 87.4337 88.2501 87.2788C88.0429 87.1239 87.8669 86.9278 87.732 86.7016L83.7563 80.0309V80.0269Z" fill="black"/>
<defs>
<linearGradient id="paint0_linear_0_1" x1="75" y1="0" x2="75" y2="150" gradientUnits="userSpaceOnUse">
<stop stop-color="#6493D9"/>
<stop offset="1" stop-color="#1F2A8D"/>
</linearGradient>
</defs>
</svg>
