<svg width="200" height="200" viewBox="0 0 200 200" fill="none" xmlns="http://www.w3.org/2000/svg">
<circle cx="100" cy="100" r="100" fill="url(#paint0_linear_0_1)" fill-opacity="0.5"/>
<path d="M63 81.25C63 81.25 63 71.625 72.5 71.625H129.5C129.5 71.625 139 71.625 139 81.25V110.125C139 110.125 139 119.75 129.5 119.75H110.5C110.5 122.96 110.894 125.366 111.688 126.969H115.25C115.88 126.969 116.484 127.222 116.929 127.674C117.375 128.125 117.625 128.737 117.625 129.375C117.625 130.013 117.375 130.625 116.929 131.076C116.484 131.528 115.88 131.781 115.25 131.781H86.75C86.1201 131.781 85.516 131.528 85.0706 131.076C84.6252 130.625 84.375 130.013 84.375 129.375C84.375 128.737 84.6252 128.125 85.0706 127.674C85.516 127.222 86.1201 126.969 86.75 126.969H90.3125C91.1057 125.366 91.5 122.96 91.5 119.75H72.5C72.5 119.75 63 119.75 63 110.125V81.25ZM69.6405 77.1353C69.1187 77.5034 68.7025 78.0048 68.434 78.5887C68.0291 79.4363 67.7965 80.3577 67.75 81.2981V110.125C67.75 111.689 68.1205 112.541 68.4387 113.022C68.7712 113.527 69.2463 113.927 69.8733 114.244C70.6738 114.637 71.5413 114.871 72.4288 114.933L72.5475 114.938H129.5C131.044 114.938 131.884 114.562 132.36 114.24C132.881 113.872 133.298 113.37 133.566 112.786C133.954 111.975 134.184 111.096 134.245 110.197L134.25 110.077V81.25C134.25 79.6859 133.88 78.8341 133.561 78.3529C133.198 77.8241 132.703 77.4023 132.127 77.1305C131.29 76.7203 130.381 76.4846 129.452 76.4375H72.5C70.9563 76.4375 70.1155 76.8129 69.6405 77.1353Z" fill="black"/>
<defs>
<linearGradient id="paint0_linear_0_1" x1="100" y1="0" x2="100" y2="200" gradientUnits="userSpaceOnUse">
<stop offset="0.0354828" stop-color="#A278E7"/>
<stop offset="0.967189" stop-color="#191D83"/>
</linearGradient>
</defs>
</svg>
